<?xml version="1.0" standalone="no"?>
<!DOCTYPE svg PUBLIC "-//W3C//DTD SVG 20010904//EN"
 "http://www.w3.org/TR/2001/REC-SVG-20010904/DTD/svg10.dtd">
<svg version="1.0" xmlns="http://www.w3.org/2000/svg"
 width="16.000000pt" height="16.000000pt" viewBox="0 0 16.000000 16.000000"
 preserveAspectRatio="xMidYMid meet">
<metadata>
Created by potrace 1.11, written by Peter Selinger 2001-2013
</metadata>
<g transform="translate(0.000000,16.000000) scale(0.006154,-0.006154)"
fill="#000000" stroke="none">
<path d="M890 2393 c-123 -43 -256 -95 -355 -138 -27 -12 -59 -25 -70 -29 -25
-8 -195 -239 -265 -361 -29 -50 -61 -103 -71 -120 -10 -16 -22 -37 -26 -45 -3
-8 -18 -33 -31 -54 -14 -22 -36 -85 -49 -139 -22 -91 -23 -106 -12 -181 6 -44
12 -92 14 -106 1 -14 5 -43 8 -65 4 -22 9 -59 12 -82 4 -30 33 -87 97 -190 50
-82 95 -152 99 -157 4 -4 86 -32 182 -61 l174 -52 92 19 c89 19 93 19 109 1 9
-10 48 -44 85 -75 56 -47 83 -62 151 -83 45 -14 85 -25 89 -25 3 0 27 -13 51
-29 43 -27 48 -28 93 -16 46 12 52 11 128 -23 61 -27 92 -35 131 -33 62 1 73
-9 111 -104 20 -47 34 -69 47 -71 22 -3 88 -6 97 -5 4 1 -4 30 -17 65 -19 54
-21 70 -12 102 12 45 32 70 70 90 24 13 35 12 93 -8 55 -18 72 -19 98 -10 18
6 87 25 154 42 l122 32 16 42 c9 22 38 66 66 96 35 39 49 63 50 85 2 93 5 100
73 153 17 13 31 28 32 35 1 7 18 82 38 167 l37 156 -48 94 c-29 58 -48 111
-49 135 -1 22 -5 87 -8 145 -5 95 -10 117 -55 234 -27 71 -53 132 -58 136 -4
4 -46 40 -93 80 -47 40 -92 80 -101 89 -9 10 -63 44 -120 76 -57 32 -155 87
-217 122 -62 35 -121 66 -131 68 -10 2 -72 6 -137 10 -66 3 -144 8 -174 10
-393 27 -377 27 -520 -22z"/>
</g>
</svg>
