<svg width="1920" height="912" xmlns="http://www.w3.org/2000/svg"><g><path d="M-40.46426676213741,-77.97598921693861L-122.63867265544832,1094.082728996873L-47.18046136200428,114.3535100016743Z" fill="#ffdcb2" stroke="#ffdcb2"></path><path d="M-40.46426676213741,-77.97598921693861L-47.18046136200428,114.3535100016743L37.35528275370598,28.493926227092743Z" fill="#fff8e9" stroke="#fff8e9"></path><path d="M-40.46426676213741,-77.97598921693861L37.35528275370598,28.493926227092743L57.248385809361935,-82.77083477005363Z" fill="#fff7eb" stroke="#fff7eb"></path><path d="M-40.46426676213741,-77.97598921693861L57.248385809361935,-82.77083477005363L577.8567054122686,-121.8990864045918Z" fill="#fff0dc" stroke="#fff0dc"></path><path d="M57.248385809361935,-82.77083477005363L37.35528275370598,28.493926227092743L197.36804438754916,-28.127175187692046Z" fill="#fff4e4" stroke="#fff4e4"></path><path d="M57.248385809361935,-82.77083477005363L197.36804438754916,-28.127175187692046L423.98090458475053,-100.6351994164288Z" fill="#ffefda" stroke="#ffefda"></path><path d="M57.248385809361935,-82.77083477005363L423.98090458475053,-100.6351994164288L577.8567054122686,-121.8990864045918Z" fill="#feebcf" stroke="#feebcf"></path><path d="M197.36804438754916,-28.127175187692046L37.35528275370598,28.493926227092743L194.46679037064314,170.76827044598758Z" fill="#fff1d5" stroke="#fff1d5"></path><path d="M197.36804438754916,-28.127175187692046L194.46679037064314,170.76827044598758L249.58969110623002,117.82359779812396Z" fill="#ffedc9" stroke="#ffedc9"></path><path d="M197.36804438754916,-28.127175187692046L249.58969110623002,117.82359779812396L380.9980236366391,121.44404257647693Z" fill="#feebc8" stroke="#feebc8"></path><path d="M197.36804438754916,-28.127175187692046L380.9980236366391,121.44404257647693L423.98090458475053,-100.6351994164288Z" fill="#feebd1" stroke="#feebd1"></path><path d="M423.98090458475053,-100.6351994164288L380.9980236366391,121.44404257647693L553.9849484525621,45.009832698851824Z" fill="#fee6c2" stroke="#fee6c2"></path><path d="M423.98090458475053,-100.6351994164288L553.9849484525621,45.009832698851824L577.8567054122686,-121.8990864045918Z" fill="#fee3c3" stroke="#fee3c3"></path><path d="M577.8567054122686,-121.8990864045918L553.9849484525621,45.009832698851824L717.1061755064875,29.905562326312065Z" fill="#feddbe" stroke="#feddbe"></path><path d="M577.8567054122686,-121.8990864045918L717.1061755064875,29.905562326312065L731.1691963020712,-80.74666030704975Z" fill="#fed9bb" stroke="#fed9bb"></path><path d="M577.8567054122686,-121.8990864045918L731.1691963020712,-80.74666030704975L830.021671783179,-115.67196152172983Z" fill="#fed6b9" stroke="#fed6b9"></path><path d="M577.8567054122686,-121.8990864045918L830.021671783179,-115.67196152172983L1452.7311999723315,-116.66307460516691Z" fill="#fec7ad" stroke="#fec7ad"></path><path d="M731.1691963020712,-80.74666030704975L717.1061755064875,29.905562326312065L868.6091246176511,15.420811157673597Z" fill="#fed3b6" stroke="#fed3b6"></path><path d="M731.1691963020712,-80.74666030704975L868.6091246176511,15.420811157673597L830.021671783179,-115.67196152172983Z" fill="#fed0b4" stroke="#fed0b4"></path><path d="M830.021671783179,-115.67196152172983L868.6091246176511,15.420811157673597L931.4209155924618,-70.53269209340215Z" fill="#feccb1" stroke="#feccb1"></path><path d="M830.021671783179,-115.67196152172983L931.4209155924618,-70.53269209340215L1135.7445096597075,-73.87970105744898Z" fill="#fec6ac" stroke="#fec6ac"></path><path d="M830.021671783179,-115.67196152172983L1135.7445096597075,-73.87970105744898L1452.7311999723315,-116.66307460516691Z" fill="#f7b5a1" stroke="#f7b5a1"></path><path d="M931.4209155924618,-70.53269209340215L868.6091246176511,15.420811157673597L925.9695625025779,33.70329279452562Z" fill="#fecaaf" stroke="#fecaaf"></path><path d="M931.4209155924618,-70.53269209340215L925.9695625025779,33.70329279452562L1135.7445096597075,-73.87970105744898Z" fill="#fcc3aa" stroke="#fcc3aa"></path><path d="M1135.7445096597075,-73.87970105744898L925.9695625025779,33.70329279452562L1176.8789940699935,36.70086049474776Z" fill="#f9bba5" stroke="#f9bba5"></path><path d="M1135.7445096597075,-73.87970105744898L1176.8789940699935,36.70086049474776L1218.0903852917254,-72.85693572834134Z" fill="#f5b19f" stroke="#f5b19f"></path><path d="M1135.7445096597075,-73.87970105744898L1218.0903852917254,-72.85693572834134L1452.7311999723315,-116.66307460516691Z" fill="#f2a89a" stroke="#f2a89a"></path><path d="M1218.0903852917254,-72.85693572834134L1176.8789940699935,36.70086049474776L1287.1715882141143,122.10811120457947Z" fill="#f3ab97" stroke="#f3ab97"></path><path d="M1218.0903852917254,-72.85693572834134L1287.1715882141143,122.10811120457947L1452.7311999723315,-116.66307460516691Z" fill="#f0a397" stroke="#f0a397"></path><path d="M1452.7311999723315,-116.66307460516691L1287.1715882141143,122.10811120457947L1481.272231405601,82.61961361393332Z" fill="#ed9a8b" stroke="#ed9a8b"></path><path d="M1452.7311999723315,-116.66307460516691L1481.272231405601,82.61961361393332L1556.509874202311,-50.93773428350687Z" fill="#e9928c" stroke="#e9928c"></path><path d="M1452.7311999723315,-116.66307460516691L1556.509874202311,-50.93773428350687L1739.4824296608567,-25.419960329309106Z" fill="#e68a87" stroke="#e68a87"></path><path d="M1452.7311999723315,-116.66307460516691L1739.4824296608567,-25.419960329309106L1861.3820760603994,-31.464370815083385Z" fill="#e28080" stroke="#e28080"></path><path d="M1452.7311999723315,-116.66307460516691L1861.3820760603994,-31.464370815083385L2075.841078227386,-67.36221665516496Z" fill="#de8080" stroke="#de8080"></path><path d="M1556.509874202311,-50.93773428350687L1481.272231405601,82.61961361393332L1629.7454732470214,126.91813878715038Z" fill="#e78b7e" stroke="#e78b7e"></path><path d="M1556.509874202311,-50.93773428350687L1629.7454732470214,126.91813878715038L1729.5747720636427,46.44421108067036Z" fill="#e4847b" stroke="#e4847b"></path><path d="M1556.509874202311,-50.93773428350687L1729.5747720636427,46.44421108067036L1739.4824296608567,-25.419960329309106Z" fill="#e28181" stroke="#e28181"></path><path d="M1739.4824296608567,-25.419960329309106L1729.5747720636427,46.44421108067036L1828.5893296077847,41.98549775406718Z" fill="#df7f7c" stroke="#df7f7c"></path><path d="M1739.4824296608567,-25.419960329309106L1828.5893296077847,41.98549775406718L1861.3820760603994,-31.464370815083385Z" fill="#dd8080" stroke="#dd8080"></path><path d="M1861.3820760603994,-31.464370815083385L1828.5893296077847,41.98549775406718L1972.0428565051407,65.30961809679866Z" fill="#da7f7b" stroke="#da7f7b"></path><path d="M1861.3820760603994,-31.464370815083385L1972.0428565051407,65.30961809679866L2075.841078227386,-67.36221665516496Z" fill="#d78080" stroke="#d78080"></path><path d="M2075.841078227386,-67.36221665516496L1972.0428565051407,65.30961809679866L2015.0687678251415,216.62410916760564Z" fill="#d57e71" stroke="#d57e71"></path><path d="M2075.841078227386,-67.36221665516496L2015.0687678251415,216.62410916760564L2054.2013323120773,481.2449232302606Z" fill="#d47a56" stroke="#d47a56"></path><path d="M2075.841078227386,-67.36221665516496L2054.2013323120773,481.2449232302606L2066.6961199510843,993.0500206444412Z" fill="#d35133" stroke="#d35133"></path><path d="M-47.18046136200428,114.3535100016743L-122.63867265544832,1094.082728996873L-50.79426965676248,211.72763066366315Z" fill="#ffcba5" stroke="#ffcba5"></path><path d="M-47.18046136200428,114.3535100016743L-50.79426965676248,211.72763066366315L75.18666051328182,257.37424059771Z" fill="#fff3c6" stroke="#fff3c6"></path><path d="M-47.18046136200428,114.3535100016743L75.18666051328182,257.37424059771L37.35528275370598,28.493926227092743Z" fill="#fff3d0" stroke="#fff3d0"></path><path d="M37.35528275370598,28.493926227092743L75.18666051328182,257.37424059771L194.46679037064314,170.76827044598758Z" fill="#fff0c5" stroke="#fff0c5"></path><path d="M249.58969110623002,117.82359779812396L194.46679037064314,170.76827044598758L358.6325907614082,177.83795507624745Z" fill="#feeab7" stroke="#feeab7"></path><path d="M249.58969110623002,117.82359779812396L358.6325907614082,177.83795507624745L380.9980236366391,121.44404257647693Z" fill="#fee8b6" stroke="#fee8b6"></path><path d="M380.9980236366391,121.44404257647693L358.6325907614082,177.83795507624745L577.2494945302606,257.2153876069933Z" fill="#fee2a3" stroke="#fee2a3"></path><path d="M380.9980236366391,121.44404257647693L577.2494945302606,257.2153876069933L553.9849484525621,45.009832698851824Z" fill="#fee1a8" stroke="#fee1a8"></path><path d="M553.9849484525621,45.009832698851824L577.2494945302606,257.2153876069933L628.0627110879868,172.77680626139045Z" fill="#fedba0" stroke="#fedba0"></path><path d="M553.9849484525621,45.009832698851824L628.0627110879868,172.77680626139045L717.1061755064875,29.905562326312065Z" fill="#fedaac" stroke="#fedaac"></path><path d="M717.1061755064875,29.905562326312065L628.0627110879868,172.77680626139045L788.4317453205585,266.77020505070686Z" fill="#fed39a" stroke="#fed39a"></path><path d="M717.1061755064875,29.905562326312065L788.4317453205585,266.77020505070686L868.6091246176511,15.420811157673597Z" fill="#fecfa0" stroke="#fecfa0"></path><path d="M868.6091246176511,15.420811157673597L788.4317453205585,266.77020505070686L925.9695625025779,33.70329279452562Z" fill="#feca9c" stroke="#feca9c"></path><path d="M925.9695625025779,33.70329279452562L788.4317453205585,266.77020505070686L925.0984899234027,279.00316008366644Z" fill="#fec78a" stroke="#fec78a"></path><path d="M925.9695625025779,33.70329279452562L925.0984899234027,279.00316008366644L1136.5831935871392,204.08956202678382Z" fill="#fcbe88" stroke="#fcbe88"></path><path d="M925.9695625025779,33.70329279452562L1136.5831935871392,204.08956202678382L1176.8789940699935,36.70086049474776Z" fill="#f9b893" stroke="#f9b893"></path><path d="M1176.8789940699935,36.70086049474776L1136.5831935871392,204.08956202678382L1287.1715882141143,122.10811120457947Z" fill="#f4ac86" stroke="#f4ac86"></path><path d="M1287.1715882141143,122.10811120457947L1136.5831935871392,204.08956202678382L1274.7527224570513,245.49440955743194Z" fill="#f3a776" stroke="#f3a776"></path><path d="M1287.1715882141143,122.10811120457947L1274.7527224570513,245.49440955743194L1393.2460043672472,203.85488094761968Z" fill="#f09f71" stroke="#f09f71"></path><path d="M1287.1715882141143,122.10811120457947L1393.2460043672472,203.85488094761968L1481.272231405601,82.61961361393332Z" fill="#ed9977" stroke="#ed9977"></path><path d="M1481.272231405601,82.61961361393332L1393.2460043672472,203.85488094761968L1566.4759199135005,211.37019644491374Z" fill="#ea8f6c" stroke="#ea8f6c"></path><path d="M1481.272231405601,82.61961361393332L1566.4759199135005,211.37019644491374L1629.7454732470214,126.91813878715038Z" fill="#e7896c" stroke="#e7896c"></path><path d="M1629.7454732470214,126.91813878715038L1566.4759199135005,211.37019644491374L1671.5808310266584,189.08141188323498Z" fill="#e48261" stroke="#e48261"></path><path d="M1629.7454732470214,126.91813878715038L1671.5808310266584,189.08141188323498L1729.5747720636427,46.44421108067036Z" fill="#e27e69" stroke="#e27e69"></path><path d="M1729.5747720636427,46.44421108067036L1671.5808310266584,189.08141188323498L1828.5893296077847,41.98549775406718Z" fill="#e07d6d" stroke="#e07d6d"></path><path d="M1828.5893296077847,41.98549775406718L1671.5808310266584,189.08141188323498L1914.3346972670406,281.53393406420946Z" fill="#dd7b5e" stroke="#dd7b5e"></path><path d="M1828.5893296077847,41.98549775406718L1914.3346972670406,281.53393406420946L1972.0428565051407,65.30961809679866Z" fill="#d97c66" stroke="#d97c66"></path><path d="M1972.0428565051407,65.30961809679866L1914.3346972670406,281.53393406420946L2015.0687678251415,216.62410916760564Z" fill="#d77b5a" stroke="#d77b5a"></path><path d="M-50.79426965676248,211.72763066366315L-122.63867265544832,1094.082728996873L-56.56042638234794,650.2731653675437Z" fill="#ffa08b" stroke="#ffa08b"></path><path d="M-50.79426965676248,211.72763066366315L-56.56042638234794,650.2731653675437L-25.81540091894567,476.1895045079291Z" fill="#ffcfa7" stroke="#ffcfa7"></path><path d="M-50.79426965676248,211.72763066366315L-25.81540091894567,476.1895045079291L-15.334319584071636,326.42192255705595Z" fill="#ffe1b3" stroke="#ffe1b3"></path><path d="M-50.79426965676248,211.72763066366315L-15.334319584071636,326.42192255705595L75.18666051328182,257.37424059771Z" fill="#ffecba" stroke="#ffecba"></path><path d="M75.18666051328182,257.37424059771L-15.334319584071636,326.42192255705595L51.29006157629192,319.3777900468558Z" fill="#ffe4b2" stroke="#ffe4b2"></path><path d="M75.18666051328182,257.37424059771L51.29006157629192,319.3777900468558L221.7996362876147,330.1298020966351Z" fill="#ffe1ac" stroke="#ffe1ac"></path><path d="M75.18666051328182,257.37424059771L221.7996362876147,330.1298020966351L194.46679037064314,170.76827044598758Z" fill="#ffe8ae" stroke="#ffe8ae"></path><path d="M194.46679037064314,170.76827044598758L221.7996362876147,330.1298020966351L358.6325907614082,177.83795507624745Z" fill="#fee8aa" stroke="#fee8aa"></path><path d="M358.6325907614082,177.83795507624745L221.7996362876147,330.1298020966351L407.95870050787926,325.27995033189654Z" fill="#fedd9d" stroke="#fedd9d"></path><path d="M358.6325907614082,177.83795507624745L407.95870050787926,325.27995033189654L577.2494945302606,257.2153876069933Z" fill="#fedd97" stroke="#fedd97"></path><path d="M577.2494945302606,257.2153876069933L407.95870050787926,325.27995033189654L528.9726077020168,350.1385659724474Z" fill="#fed18b" stroke="#fed18b"></path><path d="M577.2494945302606,257.2153876069933L528.9726077020168,350.1385659724474L708.4053051006049,334.8212973587215Z" fill="#feca86" stroke="#feca86"></path><path d="M577.2494945302606,257.2153876069933L708.4053051006049,334.8212973587215L628.0627110879868,172.77680626139045Z" fill="#fed18c" stroke="#fed18c"></path><path d="M628.0627110879868,172.77680626139045L708.4053051006049,334.8212973587215L788.4317453205585,266.77020505070686Z" fill="#fecc88" stroke="#fecc88"></path><path d="M788.4317453205585,266.77020505070686L708.4053051006049,334.8212973587215L823.2284988462925,392.34755493700504Z" fill="#febb7b" stroke="#febb7b"></path><path d="M788.4317453205585,266.77020505070686L823.2284988462925,392.34755493700504L925.0984899234027,279.00316008366644Z" fill="#feba7a" stroke="#feba7a"></path><path d="M925.0984899234027,279.00316008366644L823.2284988462925,392.34755493700504L940.4974108748138,377.76525548659265Z" fill="#feb073" stroke="#feb073"></path><path d="M925.0984899234027,279.00316008366644L940.4974108748138,377.76525548659265L1136.5831935871392,204.08956202678382Z" fill="#fcb375" stroke="#fcb375"></path><path d="M1136.5831935871392,204.08956202678382L940.4974108748138,377.76525548659265L1134.9914782494307,424.0538461972028Z" fill="#f9a46b" stroke="#f9a46b"></path><path d="M1136.5831935871392,204.08956202678382L1134.9914782494307,424.0538461972028L1223.9759711176157,320.749728390947Z" fill="#f69e67" stroke="#f69e67"></path><path d="M1136.5831935871392,204.08956202678382L1223.9759711176157,320.749728390947L1274.7527224570513,245.49440955743194Z" fill="#f4a36c" stroke="#f4a36c"></path><path d="M1274.7527224570513,245.49440955743194L1223.9759711176157,320.749728390947L1428.3318892959505,398.27382939867675Z" fill="#f08f5e" stroke="#f08f5e"></path><path d="M1274.7527224570513,245.49440955743194L1428.3318892959505,398.27382939867675L1393.2460043672472,203.85488094761968Z" fill="#ee905f" stroke="#ee905f"></path><path d="M1393.2460043672472,203.85488094761968L1428.3318892959505,398.27382939867675L1566.4759199135005,211.37019644491374Z" fill="#ea895b" stroke="#ea895b"></path><path d="M1566.4759199135005,211.37019644491374L1428.3318892959505,398.27382939867675L1574.7974953707308,404.2844850104302Z" fill="#e8784f" stroke="#e8784f"></path><path d="M1566.4759199135005,211.37019644491374L1574.7974953707308,404.2844850104302L1671.5808310266584,189.08141188323498Z" fill="#e57b53" stroke="#e57b53"></path><path d="M1671.5808310266584,189.08141188323498L1574.7974953707308,404.2844850104302L1769.2571405041963,420.596070997417Z" fill="#e26946" stroke="#e26946"></path><path d="M1671.5808310266584,189.08141188323498L1769.2571405041963,420.596070997417L1914.3346972670406,281.53393406420946Z" fill="#de6e49" stroke="#de6e49"></path><path d="M1914.3346972670406,281.53393406420946L1769.2571405041963,420.596070997417L1903.199183922261,390.9227219223976Z" fill="#db6341" stroke="#db6341"></path><path d="M1914.3346972670406,281.53393406420946L1903.199183922261,390.9227219223976L1974.4003711547703,360.5094363167882Z" fill="#d86743" stroke="#d86743"></path><path d="M1914.3346972670406,281.53393406420946L1974.4003711547703,360.5094363167882L2015.0687678251415,216.62410916760564Z" fill="#d7704b" stroke="#d7704b"></path><path d="M2015.0687678251415,216.62410916760564L1974.4003711547703,360.5094363167882L2054.2013323120773,481.2449232302606Z" fill="#d56542" stroke="#d56542"></path><path d="M-15.334319584071636,326.42192255705595L-25.81540091894567,476.1895045079291L51.29006157629192,319.3777900468558Z" fill="#ffdaac" stroke="#ffdaac"></path><path d="M51.29006157629192,319.3777900468558L-25.81540091894567,476.1895045079291L119.09183054231107,537.5231056753546Z" fill="#ffcc9f" stroke="#ffcc9f"></path><path d="M51.29006157629192,319.3777900468558L119.09183054231107,537.5231056753546L221.7996362876147,330.1298020966351Z" fill="#ffd19e" stroke="#ffd19e"></path><path d="M221.7996362876147,330.1298020966351L119.09183054231107,537.5231056753546L239.18274485506117,484.1091970447451Z" fill="#ffc692" stroke="#ffc692"></path><path d="M221.7996362876147,330.1298020966351L239.18274485506117,484.1091970447451L407.95870050787926,325.27995033189654Z" fill="#fece93" stroke="#fece93"></path><path d="M407.95870050787926,325.27995033189654L239.18274485506117,484.1091970447451L432.3721813224256,543.4013421926647Z" fill="#fec085" stroke="#fec085"></path><path d="M407.95870050787926,325.27995033189654L432.3721813224256,543.4013421926647L528.9726077020168,350.1385659724474Z" fill="#fec383" stroke="#fec383"></path><path d="M528.9726077020168,350.1385659724474L432.3721813224256,543.4013421926647L545.8323480281979,568.3368229866028Z" fill="#feb175" stroke="#feb175"></path><path d="M528.9726077020168,350.1385659724474L545.8323480281979,568.3368229866028L688.4324570372701,574.5683934632689Z" fill="#fea96e" stroke="#fea96e"></path><path d="M528.9726077020168,350.1385659724474L688.4324570372701,574.5683934632689L708.4053051006049,334.8212973587215Z" fill="#feb676" stroke="#feb676"></path><path d="M708.4053051006049,334.8212973587215L688.4324570372701,574.5683934632689L823.2284988462925,392.34755493700504Z" fill="#fead70" stroke="#fead70"></path><path d="M823.2284988462925,392.34755493700504L688.4324570372701,574.5683934632689L816.8758978508413,538.5775421652943Z" fill="#fe9c64" stroke="#fe9c64"></path><path d="M823.2284988462925,392.34755493700504L816.8758978508413,538.5775421652943L926.9290539622307,516.5455702319741Z" fill="#fe9b63" stroke="#fe9b63"></path><path d="M823.2284988462925,392.34755493700504L926.9290539622307,516.5455702319741L940.4974108748138,377.76525548659265Z" fill="#fea368" stroke="#fea368"></path><path d="M940.4974108748138,377.76525548659265L926.9290539622307,516.5455702319741L1134.9914782494307,424.0538461972028Z" fill="#fc9961" stroke="#fc9961"></path><path d="M1134.9914782494307,424.0538461972028L926.9290539622307,516.5455702319741L1175.2998250443488,574.3176823016256Z" fill="#f98353" stroke="#f98353"></path><path d="M1134.9914782494307,424.0538461972028L1175.2998250443488,574.3176823016256L1286.7511932179332,581.0004106443375Z" fill="#f57349" stroke="#f57349"></path><path d="M1134.9914782494307,424.0538461972028L1286.7511932179332,581.0004106443375L1223.9759711176157,320.749728390947Z" fill="#f48554" stroke="#f48554"></path><path d="M1223.9759711176157,320.749728390947L1286.7511932179332,581.0004106443375L1428.3318892959505,398.27382939867675Z" fill="#f07c4f" stroke="#f07c4f"></path><path d="M1428.3318892959505,398.27382939867675L1286.7511932179332,581.0004106443375L1477.391080968082,522.31162131764Z" fill="#ed6541" stroke="#ed6541"></path><path d="M1428.3318892959505,398.27382939867675L1477.391080968082,522.31162131764L1535.2681113872677,517.1268506906927Z" fill="#ea633f" stroke="#ea633f"></path><path d="M1428.3318892959505,398.27382939867675L1535.2681113872677,517.1268506906927L1574.7974953707308,404.2844850104302Z" fill="#e86842" stroke="#e86842"></path><path d="M1574.7974953707308,404.2844850104302L1535.2681113872677,517.1268506906927L1737.543278457597,532.7404472138733Z" fill="#e45436" stroke="#e45436"></path><path d="M1574.7974953707308,404.2844850104302L1737.543278457597,532.7404472138733L1769.2571405041963,420.596070997417Z" fill="#e15536" stroke="#e15536"></path><path d="M1769.2571405041963,420.596070997417L1737.543278457597,532.7404472138733L1845.8371365163475,564.5876262523234Z" fill="#de482e" stroke="#de482e"></path><path d="M1769.2571405041963,420.596070997417L1845.8371365163475,564.5876262523234L1903.199183922261,390.9227219223976Z" fill="#dc5435" stroke="#dc5435"></path><path d="M1903.199183922261,390.9227219223976L1845.8371365163475,564.5876262523234L2054.2013323120773,481.2449232302606Z" fill="#d84f32" stroke="#d84f32"></path><path d="M1903.199183922261,390.9227219223976L2054.2013323120773,481.2449232302606L1974.4003711547703,360.5094363167882Z" fill="#d75c3b" stroke="#d75c3b"></path><path d="M-25.81540091894567,476.1895045079291L-56.56042638234794,650.2731653675437L119.09183054231107,537.5231056753546Z" fill="#ffb492" stroke="#ffb492"></path><path d="M119.09183054231107,537.5231056753546L-56.56042638234794,650.2731653675437L34.936354234814644,691.4690139703453Z" fill="#ffa285" stroke="#ffa285"></path><path d="M119.09183054231107,537.5231056753546L34.936354234814644,691.4690139703453L199.56532121635973,679.2647531814873Z" fill="#ff9c7d" stroke="#ff9c7d"></path><path d="M119.09183054231107,537.5231056753546L199.56532121635973,679.2647531814873L239.18274485506117,484.1091970447451Z" fill="#ffaa81" stroke="#ffaa81"></path><path d="M239.18274485506117,484.1091970447451L199.56532121635973,679.2647531814873L432.3721813224256,543.4013421926647Z" fill="#fea679" stroke="#fea679"></path><path d="M432.3721813224256,543.4013421926647L199.56532121635973,679.2647531814873L430.32812998630106,685.9012633748353Z" fill="#fe9369" stroke="#fe9369"></path><path d="M432.3721813224256,543.4013421926647L430.32812998630106,685.9012633748353L537.7637774962932,623.0397962406278Z" fill="#fe9363" stroke="#fe9363"></path><path d="M432.3721813224256,543.4013421926647L537.7637774962932,623.0397962406278L545.8323480281979,568.3368229866028Z" fill="#fe9b66" stroke="#fe9b66"></path><path d="M545.8323480281979,568.3368229866028L537.7637774962932,623.0397962406278L639.6940323896706,643.45902107656Z" fill="#fe8e5e" stroke="#fe8e5e"></path><path d="M545.8323480281979,568.3368229866028L639.6940323896706,643.45902107656L688.4324570372701,574.5683934632689Z" fill="#fe8f5e" stroke="#fe8f5e"></path><path d="M688.4324570372701,574.5683934632689L639.6940323896706,643.45902107656L829.5240540895611,646.3252846989781Z" fill="#fe8255" stroke="#fe8255"></path><path d="M688.4324570372701,574.5683934632689L829.5240540895611,646.3252846989781L816.8758978508413,538.5775421652943Z" fill="#fe8758" stroke="#fe8758"></path><path d="M816.8758978508413,538.5775421652943L829.5240540895611,646.3252846989781L926.9290539622307,516.5455702319741Z" fill="#fe8656" stroke="#fe8656"></path><path d="M926.9290539622307,516.5455702319741L829.5240540895611,646.3252846989781L1033.7488931883126,657.8721491061151Z" fill="#fe784c" stroke="#fe784c"></path><path d="M926.9290539622307,516.5455702319741L1033.7488931883126,657.8721491061151L1175.2998250443488,574.3176823016256Z" fill="#fa734a" stroke="#fa734a"></path><path d="M1175.2998250443488,574.3176823016256L1033.7488931883126,657.8721491061151L1110.4523702804,656.2938025407493Z" fill="#f8633e" stroke="#f8633e"></path><path d="M1175.2998250443488,574.3176823016256L1110.4523702804,656.2938025407493L1318.4774205833673,733.7388172186911Z" fill="#f45335" stroke="#f45335"></path><path d="M1175.2998250443488,574.3176823016256L1318.4774205833673,733.7388172186911L1286.7511932179332,581.0004106443375Z" fill="#f25335" stroke="#f25335"></path><path d="M1286.7511932179332,581.0004106443375L1318.4774205833673,733.7388172186911L1380.6955699715763,624.0162587631494Z" fill="#f0492e" stroke="#f0492e"></path><path d="M1286.7511932179332,581.0004106443375L1380.6955699715763,624.0162587631494L1477.391080968082,522.31162131764Z" fill="#ee5536" stroke="#ee5536"></path><path d="M1477.391080968082,522.31162131764L1380.6955699715763,624.0162587631494L1630.815624408424,690.553822433576Z" fill="#e9412a" stroke="#e9412a"></path><path d="M1477.391080968082,522.31162131764L1630.815624408424,690.553822433576L1535.2681113872677,517.1268506906927Z" fill="#e7442c" stroke="#e7442c"></path><path d="M1535.2681113872677,517.1268506906927L1630.815624408424,690.553822433576L1676.8673257716,642.9539136495441Z" fill="#e53422" stroke="#e53422"></path><path d="M1535.2681113872677,517.1268506906927L1676.8673257716,642.9539136495441L1737.543278457597,532.7404472138733Z" fill="#e33d28" stroke="#e33d28"></path><path d="M1737.543278457597,532.7404472138733L1676.8673257716,642.9539136495441L1845.8371365163475,564.5876262523234Z" fill="#df3622" stroke="#df3622"></path><path d="M1845.8371365163475,564.5876262523234L1676.8673257716,642.9539136495441L1881.3008734490722,734.7389240842313Z" fill="#dd2618" stroke="#dd2618"></path><path d="M1845.8371365163475,564.5876262523234L1881.3008734490722,734.7389240842313L1998.86808690615,663.5032629780471Z" fill="#d92417" stroke="#d92417"></path><path d="M1845.8371365163475,564.5876262523234L1998.86808690615,663.5032629780471L2054.2013323120773,481.2449232302606Z" fill="#d73924" stroke="#d73924"></path><path d="M2054.2013323120773,481.2449232302606L1998.86808690615,663.5032629780471L2066.6961199510843,993.0500206444412Z" fill="#d4160e" stroke="#d4160e"></path><path d="M-56.56042638234794,650.2731653675437L-122.63867265544832,1094.082728996873L-33.75363592989743,812.8559033665806Z" fill="#ff7b73" stroke="#ff7b73"></path><path d="M-56.56042638234794,650.2731653675437L-33.75363592989743,812.8559033665806L34.936354234814644,691.4690139703453Z" fill="#ff8d7c" stroke="#ff8d7c"></path><path d="M34.936354234814644,691.4690139703453L-33.75363592989743,812.8559033665806L50.595919573679566,818.6270080693066Z" fill="#ff7e70" stroke="#ff7e70"></path><path d="M34.936354234814644,691.4690139703453L50.595919573679566,818.6270080693066L199.56532121635973,679.2647531814873Z" fill="#ff8670" stroke="#ff8670"></path><path d="M199.56532121635973,679.2647531814873L50.595919573679566,818.6270080693066L284.6257185190916,880.8855888526887Z" fill="#ff7460" stroke="#ff7460"></path><path d="M199.56532121635973,679.2647531814873L284.6257185190916,880.8855888526887L372.8303903248161,808.5594539064914Z" fill="#fe7158" stroke="#fe7158"></path><path d="M199.56532121635973,679.2647531814873L372.8303903248161,808.5594539064914L430.32812998630106,685.9012633748353Z" fill="#fe7e5e" stroke="#fe7e5e"></path><path d="M430.32812998630106,685.9012633748353L372.8303903248161,808.5594539064914L474.0011368878186,827.4549332074821Z" fill="#fe6f4f" stroke="#fe6f4f"></path><path d="M430.32812998630106,685.9012633748353L474.0011368878186,827.4549332074821L537.7637774962932,623.0397962406278Z" fill="#fe7c53" stroke="#fe7c53"></path><path d="M537.7637774962932,623.0397962406278L474.0011368878186,827.4549332074821L632.3854575958103,800.8536978252232Z" fill="#fe6e4a" stroke="#fe6e4a"></path><path d="M537.7637774962932,623.0397962406278L632.3854575958103,800.8536978252232L639.6940323896706,643.45902107656Z" fill="#fe7a50" stroke="#fe7a50"></path><path d="M639.6940323896706,643.45902107656L632.3854575958103,800.8536978252232L814.3712070956826,766.3014351390302Z" fill="#fe6845" stroke="#fe6845"></path><path d="M639.6940323896706,643.45902107656L814.3712070956826,766.3014351390302L829.5240540895611,646.3252846989781Z" fill="#fe7049" stroke="#fe7049"></path><path d="M829.5240540895611,646.3252846989781L814.3712070956826,766.3014351390302L924.5595141872764,820.6246190797538Z" fill="#fe5c3c" stroke="#fe5c3c"></path><path d="M829.5240540895611,646.3252846989781L924.5595141872764,820.6246190797538L1033.7488931883126,657.8721491061151Z" fill="#fe5f3d" stroke="#fe5f3d"></path><path d="M1033.7488931883126,657.8721491061151L924.5595141872764,820.6246190797538L1080.984472045675,882.9181113280356Z" fill="#fc452d" stroke="#fc452d"></path><path d="M1033.7488931883126,657.8721491061151L1080.984472045675,882.9181113280356L1110.4523702804,656.2938025407493Z" fill="#f94c31" stroke="#f94c31"></path><path d="M1110.4523702804,656.2938025407493L1080.984472045675,882.9181113280356L1216.7292834911495,823.0448480229825Z" fill="#f73925" stroke="#f73925"></path><path d="M1110.4523702804,656.2938025407493L1216.7292834911495,823.0448480229825L1318.4774205833673,733.7388172186911Z" fill="#f43e28" stroke="#f43e28"></path><path d="M1318.4774205833673,733.7388172186911L1216.7292834911495,823.0448480229825L1451.4176588505507,792.1908998955041Z" fill="#f0281a" stroke="#f0281a"></path><path d="M1318.4774205833673,733.7388172186911L1451.4176588505507,792.1908998955041L1380.6955699715763,624.0162587631494Z" fill="#ed3221" stroke="#ed3221"></path><path d="M1380.6955699715763,624.0162587631494L1451.4176588505507,792.1908998955041L1630.815624408424,690.553822433576Z" fill="#e92c1c" stroke="#e92c1c"></path><path d="M1630.815624408424,690.553822433576L1451.4176588505507,792.1908998955041L1569.7416124865413,858.7294184882194Z" fill="#e7130d" stroke="#e7130d"></path><path d="M1630.815624408424,690.553822433576L1569.7416124865413,858.7294184882194L1732.5061065517366,839.0107318293303Z" fill="#e30505" stroke="#e30505"></path><path d="M1630.815624408424,690.553822433576L1732.5061065517366,839.0107318293303L1676.8673257716,642.9539136495441Z" fill="#e2130e" stroke="#e2130e"></path><path d="M1676.8673257716,642.9539136495441L1732.5061065517366,839.0107318293303L1881.3008734490722,734.7389240842313Z" fill="#df0f0a" stroke="#df0f0a"></path><path d="M1881.3008734490722,734.7389240842313L1732.5061065517366,839.0107318293303L1927.5781081896275,863.4063885547221Z" fill="#dc0000" stroke="#dc0000"></path><path d="M1881.3008734490722,734.7389240842313L1927.5781081896275,863.4063885547221L1976.0251303296536,768.2494650967419Z" fill="#d80303" stroke="#d80303"></path><path d="M1881.3008734490722,734.7389240842313L1976.0251303296536,768.2494650967419L1998.86808690615,663.5032629780471Z" fill="#d8130d" stroke="#d8130d"></path><path d="M1998.86808690615,663.5032629780471L1976.0251303296536,768.2494650967419L2066.6961199510843,993.0500206444412Z" fill="#d50000" stroke="#d50000"></path><path d="M-33.75363592989743,812.8559033665806L-122.63867265544832,1094.082728996873L-55.902448715642095,958.3811737876385Z" fill="#ff7b73" stroke="#ff7b73"></path><path d="M-33.75363592989743,812.8559033665806L-55.902448715642095,958.3811737876385L50.595919573679566,818.6270080693066Z" fill="#ff796e" stroke="#ff796e"></path><path d="M50.595919573679566,818.6270080693066L-55.902448715642095,958.3811737876385L110.96017221920192,965.6921791657805Z" fill="#ff776a" stroke="#ff776a"></path><path d="M50.595919573679566,818.6270080693066L110.96017221920192,965.6921791657805L284.6257185190916,880.8855888526887Z" fill="#ff7361" stroke="#ff7361"></path><path d="M284.6257185190916,880.8855888526887L110.96017221920192,965.6921791657805L186.90051189623773,1017.1282749250531Z" fill="#ff715d" stroke="#ff715d"></path><path d="M284.6257185190916,880.8855888526887L186.90051189623773,1017.1282749250531L369.1514016967267,1022.4113360513002Z" fill="#fe6e56" stroke="#fe6e56"></path><path d="M284.6257185190916,880.8855888526887L369.1514016967267,1022.4113360513002L372.8303903248161,808.5594539064914Z" fill="#fe6b51" stroke="#fe6b51"></path><path d="M372.8303903248161,808.5594539064914L369.1514016967267,1022.4113360513002L474.0011368878186,827.4549332074821Z" fill="#fe694b" stroke="#fe694b"></path><path d="M474.0011368878186,827.4549332074821L369.1514016967267,1022.4113360513002L576.9600064773113,1027.0835501141846Z" fill="#fe6646" stroke="#fe6646"></path><path d="M474.0011368878186,827.4549332074821L576.9600064773113,1027.0835501141846L632.3854575958103,800.8536978252232Z" fill="#fe6141" stroke="#fe6141"></path><path d="M632.3854575958103,800.8536978252232L576.9600064773113,1027.0835501141846L690.096175018698,961.111913016066Z" fill="#fe5c3d" stroke="#fe5c3d"></path><path d="M632.3854575958103,800.8536978252232L690.096175018698,961.111913016066L814.3712070956826,766.3014351390302Z" fill="#fe5739" stroke="#fe5739"></path><path d="M814.3712070956826,766.3014351390302L690.096175018698,961.111913016066L860.4687163699418,966.0189543385059Z" fill="#fe5236" stroke="#fe5236"></path><path d="M814.3712070956826,766.3014351390302L860.4687163699418,966.0189543385059L924.5595141872764,820.6246190797538Z" fill="#fe4d32" stroke="#fe4d32"></path><path d="M924.5595141872764,820.6246190797538L860.4687163699418,966.0189543385059L925.8997573144734,996.3741649501026Z" fill="#fe4a30" stroke="#fe4a30"></path><path d="M924.5595141872764,820.6246190797538L925.8997573144734,996.3741649501026L1080.984472045675,882.9181113280356Z" fill="#fd452c" stroke="#fd452c"></path><path d="M1080.984472045675,882.9181113280356L925.8997573144734,996.3741649501026L1093.3376705925912,947.041673893109Z" fill="#fb4028" stroke="#fb4028"></path><path d="M1080.984472045675,882.9181113280356L1093.3376705925912,947.041673893109L1216.7292834911495,823.0448480229825Z" fill="#f73622" stroke="#f73622"></path><path d="M1216.7292834911495,823.0448480229825L1093.3376705925912,947.041673893109L1239.5334189478308,1005.7710175774992Z" fill="#f5311f" stroke="#f5311f"></path><path d="M1216.7292834911495,823.0448480229825L1239.5334189478308,1005.7710175774992L1388.02120805718,985.1264402177185Z" fill="#f12819" stroke="#f12819"></path><path d="M1216.7292834911495,823.0448480229825L1388.02120805718,985.1264402177185L1451.4176588505507,792.1908998955041Z" fill="#ef2115" stroke="#ef2115"></path><path d="M1451.4176588505507,792.1908998955041L1388.02120805718,985.1264402177185L1569.7416124865413,858.7294184882194Z" fill="#ea150e" stroke="#ea150e"></path><path d="M1569.7416124865413,858.7294184882194L1388.02120805718,985.1264402177185L1568.9277950953692,1011.5071334782988Z" fill="#e9120c" stroke="#e9120c"></path><path d="M1569.7416124865413,858.7294184882194L1568.9277950953692,1011.5071334782988L1729.3728919420391,981.6718746721745Z" fill="#e40705" stroke="#e40705"></path><path d="M1569.7416124865413,858.7294184882194L1729.3728919420391,981.6718746721745L1732.5061065517366,839.0107318293303Z" fill="#e20101" stroke="#e20101"></path><path d="M1732.5061065517366,839.0107318293303L1729.3728919420391,981.6718746721745L1863.583527635783,937.5839489512146Z" fill="#de0000" stroke="#de0000"></path><path d="M1732.5061065517366,839.0107318293303L1863.583527635783,937.5839489512146L1927.5781081896275,863.4063885547221Z" fill="#dc0000" stroke="#dc0000"></path><path d="M1927.5781081896275,863.4063885547221L1863.583527635783,937.5839489512146L2066.6961199510843,993.0500206444412Z" fill="#d70000" stroke="#d70000"></path><path d="M1927.5781081896275,863.4063885547221L2066.6961199510843,993.0500206444412L1976.0251303296536,768.2494650967419Z" fill="#d60000" stroke="#d60000"></path><path d="M-55.902448715642095,958.3811737876385L-122.63867265544832,1094.082728996873L85.55609959177673,1183.4501301683486Z" fill="#ff796f" stroke="#ff796f"></path><path d="M-55.902448715642095,958.3811737876385L85.55609959177673,1183.4501301683486L110.96017221920192,965.6921791657805Z" fill="#ff7669" stroke="#ff7669"></path><path d="M110.96017221920192,965.6921791657805L85.55609959177673,1183.4501301683486L165.01494272612035,1125.6976438779384Z" fill="#ff7463" stroke="#ff7463"></path><path d="M110.96017221920192,965.6921791657805L165.01494272612035,1125.6976438779384L186.90051189623773,1017.1282749250531Z" fill="#ff7260" stroke="#ff7260"></path><path d="M186.90051189623773,1017.1282749250531L165.01494272612035,1125.6976438779384L369.1514016967267,1022.4113360513002Z" fill="#fe6f59" stroke="#fe6f59"></path><path d="M369.1514016967267,1022.4113360513002L165.01494272612035,1125.6976438779384L402.83060065470636,1123.1712893396616Z" fill="#fe6d53" stroke="#fe6d53"></path><path d="M369.1514016967267,1022.4113360513002L402.83060065470636,1123.1712893396616L484.08515489660203,1102.9423698596656Z" fill="#fe694a" stroke="#fe694a"></path><path d="M369.1514016967267,1022.4113360513002L484.08515489660203,1102.9423698596656L576.9600064773113,1027.0835501141846Z" fill="#fe6646" stroke="#fe6646"></path><path d="M576.9600064773113,1027.0835501141846L484.08515489660203,1102.9423698596656L681.4085163082927,1088.1374013796449Z" fill="#fe6040" stroke="#fe6040"></path><path d="M576.9600064773113,1027.0835501141846L681.4085163082927,1088.1374013796449L690.096175018698,961.111913016066Z" fill="#fe5b3d" stroke="#fe5b3d"></path><path d="M690.096175018698,961.111913016066L681.4085163082927,1088.1374013796449L860.4687163699418,966.0189543385059Z" fill="#fe5538" stroke="#fe5538"></path><path d="M860.4687163699418,966.0189543385059L681.4085163082927,1088.1374013796449L809.7004483826458,1149.1991215758026Z" fill="#fe5236" stroke="#fe5236"></path><path d="M860.4687163699418,966.0189543385059L809.7004483826458,1149.1991215758026L925.8997573144734,996.3741649501026Z" fill="#fe4d32" stroke="#fe4d32"></path><path d="M925.8997573144734,996.3741649501026L809.7004483826458,1149.1991215758026L946.3280292134732,1136.1522287875414Z" fill="#fe4b30" stroke="#fe4b30"></path><path d="M925.8997573144734,996.3741649501026L946.3280292134732,1136.1522287875414L1093.3376705925912,947.041673893109Z" fill="#fd442b" stroke="#fd442b"></path><path d="M1093.3376705925912,947.041673893109L946.3280292134732,1136.1522287875414L1138.2056874688715,1130.1536780409515Z" fill="#fa3d27" stroke="#fa3d27"></path><path d="M1093.3376705925912,947.041673893109L1138.2056874688715,1130.1536780409515L1239.5334189478308,1005.7710175774992Z" fill="#f63421" stroke="#f63421"></path><path d="M1239.5334189478308,1005.7710175774992L1138.2056874688715,1130.1536780409515L1248.6496140249074,1076.6787917912006Z" fill="#f42f1e" stroke="#f42f1e"></path><path d="M1239.5334189478308,1005.7710175774992L1248.6496140249074,1076.6787917912006L1388.02120805718,985.1264402177185Z" fill="#f12719" stroke="#f12719"></path><path d="M1388.02120805718,985.1264402177185L1248.6496140249074,1076.6787917912006L1415.0074505992234,1149.786478774622Z" fill="#ef2115" stroke="#ef2115"></path><path d="M1388.02120805718,985.1264402177185L1415.0074505992234,1149.786478774622L1568.9277950953692,1011.5071334782988Z" fill="#eb170f" stroke="#eb170f"></path><path d="M1568.9277950953692,1011.5071334782988L1415.0074505992234,1149.786478774622L1608.1021570041776,1097.9521155171096Z" fill="#e80f0a" stroke="#e80f0a"></path><path d="M1568.9277950953692,1011.5071334782988L1608.1021570041776,1097.9521155171096L1729.3728919420391,981.6718746721745Z" fill="#e40504" stroke="#e40504"></path><path d="M1729.3728919420391,981.6718746721745L1608.1021570041776,1097.9521155171096L1776.6464449837804,1161.3988612499088Z" fill="#e10000" stroke="#e10000"></path><path d="M1729.3728919420391,981.6718746721745L1776.6464449837804,1161.3988612499088L1841.3939003180712,1087.919748276472Z" fill="#de0000" stroke="#de0000"></path><path d="M1729.3728919420391,981.6718746721745L1841.3939003180712,1087.919748276472L1863.583527635783,937.5839489512146Z" fill="#dd0000" stroke="#dd0000"></path><path d="M1863.583527635783,937.5839489512146L1841.3939003180712,1087.919748276472L2066.6961199510843,993.0500206444412Z" fill="#d90000" stroke="#d90000"></path><path d="M2066.6961199510843,993.0500206444412L1841.3939003180712,1087.919748276472L1976.9391673989594,1183.1728360801935Z" fill="#d70000" stroke="#d70000"></path><path d="M85.55609959177673,1183.4501301683486L1976.9391673989594,1183.1728360801935L809.7004483826458,1149.1991215758026Z" fill="#fe472d" stroke="#fe472d"></path><path d="M85.55609959177673,1183.4501301683486L809.7004483826458,1149.1991215758026L402.83060065470636,1123.1712893396616Z" fill="#fe6849" stroke="#fe6849"></path><path d="M85.55609959177673,1183.4501301683486L402.83060065470636,1123.1712893396616L165.01494272612035,1125.6976438779384Z" fill="#ff705b" stroke="#ff705b"></path><path d="M402.83060065470636,1123.1712893396616L809.7004483826458,1149.1991215758026L484.08515489660203,1102.9423698596656Z" fill="#fe6141" stroke="#fe6141"></path><path d="M484.08515489660203,1102.9423698596656L809.7004483826458,1149.1991215758026L681.4085163082927,1088.1374013796449Z" fill="#fe5b3c" stroke="#fe5b3c"></path><path d="M809.7004483826458,1149.1991215758026L1976.9391673989594,1183.1728360801935L1415.0074505992234,1149.786478774622Z" fill="#ed1c12" stroke="#ed1c12"></path><path d="M809.7004483826458,1149.1991215758026L1415.0074505992234,1149.786478774622L946.3280292134732,1136.1522287875414Z" fill="#fa3d27" stroke="#fa3d27"></path><path d="M946.3280292134732,1136.1522287875414L1415.0074505992234,1149.786478774622L1138.2056874688715,1130.1536780409515Z" fill="#f63320" stroke="#f63320"></path><path d="M1138.2056874688715,1130.1536780409515L1415.0074505992234,1149.786478774622L1248.6496140249074,1076.6787917912006Z" fill="#f2291a" stroke="#f2291a"></path><path d="M1415.0074505992234,1149.786478774622L1976.9391673989594,1183.1728360801935L1776.6464449837804,1161.3988612499088Z" fill="#e00000" stroke="#e00000"></path><path d="M1415.0074505992234,1149.786478774622L1776.6464449837804,1161.3988612499088L1608.1021570041776,1097.9521155171096Z" fill="#e50906" stroke="#e50906"></path><path d="M1776.6464449837804,1161.3988612499088L1976.9391673989594,1183.1728360801935L1841.3939003180712,1087.919748276472Z" fill="#db0000" stroke="#db0000"></path></g></svg>